<?xml version="1.0" standalone="no"?>
<!DOCTYPE svg PUBLIC "-//W3C//DTD SVG 20010904//EN"
 "http://www.w3.org/TR/2001/REC-SVG-20010904/DTD/svg10.dtd">
<svg version="1.0" xmlns="http://www.w3.org/2000/svg"
 width="120.000000pt" height="120.000000pt" viewBox="0 0 120.000000 120.000000"
 preserveAspectRatio="xMidYMid meet">
<metadata>
Created by potrace 1.11, written by Peter Selinger 2001-2013
</metadata>
<g transform="translate(0.000000,120.000000) scale(0.100000,-0.100000)"
fill="#000000" stroke="none">
<path d="M579 1154 c0 -11 -3 -13 -6 -6 -2 6 -12 12 -21 12 -23 -1 -54 -25
-44 -35 4 -4 -3 -3 -15 4 -19 9 -24 8 -32 -8 -6 -10 -7 -21 -4 -25 3 -3 0 -6
-8 -6 -8 0 -20 -13 -26 -30 -6 -17 -19 -30 -28 -30 -9 0 -14 -4 -10 -10 3 -5
0 -19 -7 -30 -11 -17 -11 -22 0 -29 9 -6 6 -15 -15 -36 -26 -26 -26 -27 -5
-21 12 4 22 4 23 -1 5 -61 17 -103 29 -103 5 0 17 -26 26 -57 17 -57 78 -194
85 -190 3 1 0 -4 -6 -10 -6 -7 -41 -15 -79 -18 -39 -3 -79 -11 -90 -18 -16
-11 -34 -10 -119 12 -76 20 -101 23 -104 14 -3 -7 -15 -13 -28 -13 -13 0 -30
-6 -38 -14 -7 -8 -24 -16 -38 -18 -23 -3 -22 -4 16 -42 21 -21 39 -46 40 -55
3 -27 51 -125 68 -140 10 -7 17 -20 17 -27 0 -8 6 -14 14 -14 7 0 16 -9 19
-19 6 -24 57 -39 152 -43 l70 -4 0 -46 -1 -46 61 -15 c71 -18 263 -17 312 2
29 11 31 15 30 58 -2 43 0 47 28 54 17 5 55 11 85 14 101 10 128 16 142 33 21
27 50 82 42 82 -4 0 0 8 8 18 15 16 26 64 33 139 2 19 13 49 24 68 l20 35 -21
0 c-12 0 -29 7 -39 16 -30 28 -101 27 -166 -2 -35 -16 -80 -27 -119 -29 l-61
-3 -2 47 c-2 25 -3 52 -4 59 0 7 -4 9 -8 5 -4 -4 -4 -26 0 -48 4 -22 6 -46 4
-52 -4 -12 -52 -3 -54 10 -2 14 41 107 50 107 5 0 12 18 16 40 4 26 12 40 22
40 8 0 17 9 20 20 3 11 9 17 14 14 5 -3 9 8 9 24 0 16 3 32 8 36 4 4 8 17 9
29 1 12 4 37 6 55 2 18 0 35 -5 38 -5 3 -5 11 -1 17 5 7 8 19 7 27 -1 8 -2 20
-3 27 -1 7 -8 10 -18 6 -11 -4 -14 -3 -9 5 4 7 1 15 -8 18 -9 3 -16 12 -16 20
0 8 -4 14 -10 14 -5 0 -10 6 -10 14 0 9 -7 12 -20 9 -16 -4 -18 -1 -15 18 6
28 -13 42 -32 24 -10 -11 -19 -11 -45 -2 -18 7 -36 17 -40 22 -5 6 -8 5 -8 -4
0 -11 -3 -11 -15 -1 -12 10 -15 9 -15 -5 0 -17 -1 -17 -20 0 -19 17 -20 17
-21 -1z"/>
</g>
</svg>
